Coordinates
version=1
nRows=27
nColumns=12
inDegrees=yes

Units are S.I. units (second, meters, Newtons, ...)
Angles are in degrees

endheader
time	SC_y	SC_z	SC_x	AC_y	AC_z	AC_x	GH_y	GH_z	GH_yy	EL_x	PS_y
       0.0              -38.35          21.69          60.17          51.36         -6.579         -11.41          108.8          36.41          21.27          29.61          92.58
   0.00166              -38.35          21.69          60.17          51.36         -6.577         -11.41          108.8          36.41          21.26          29.61          92.57
   0.00332              -38.35          21.69          60.17          51.36         -6.575         -11.41          108.7          36.41          21.24          29.61          92.57
   0.00498              -38.35          21.69          60.17          51.35         -6.573         -11.41          108.7           36.4          21.23          29.61          92.56
   0.00664              -38.35          21.69          60.17          51.35          -6.57          -11.4          108.6           36.4          21.21          29.61          92.56
    0.0083              -38.35          21.69          60.17          51.35         -6.568          -11.4          108.6          36.39          21.19          29.61          92.55
   0.00996              -38.35          21.69          60.17          51.34         -6.565          -11.4          108.5          36.39          21.17          29.61          92.54
   0.01162              -38.35          21.69          60.17          51.34         -6.562         -11.39          108.5          36.38          21.16           29.6          92.53
   0.01328              -38.35          21.69          60.17          51.33         -6.559         -11.39          108.4          36.38          21.13           29.6          92.53
   0.01494              -38.35          21.69          60.17          51.33         -6.556         -11.39          108.3          36.37          21.11           29.6          92.52
    0.0166              -38.35          21.69          60.17          51.32         -6.552         -11.38          108.3          36.37          21.09           29.6          92.51
   0.01826              -38.35          21.69          60.17          51.32         -6.548         -11.38          108.2          36.36          21.06           29.6           92.5
   0.01992              -38.35          21.69          60.17          51.31         -6.544         -11.37          108.1          36.35          21.03           29.6          92.49
   0.02158              -38.35          21.69          60.17          51.31         -6.539         -11.37          108.0          36.34           21.0           29.6          92.48
   0.02324              -38.35          21.69          60.16           51.3         -6.535         -11.36          108.0          36.33          20.97           29.6          92.47
    0.0249              -38.35          21.69          60.16          51.29         -6.529         -11.35          107.9          36.32          20.93           29.6          92.45
   0.02656              -38.35          21.69          60.16          51.28         -6.524         -11.35          107.7          36.31          20.89           29.6          92.44
   0.02822              -38.35          21.69          60.16          51.28         -6.517         -11.34          107.6           36.3          20.85           29.6          92.42
   0.02988              -38.35           21.7          60.16          51.27          -6.51         -11.33          107.5          36.29          20.81           29.6          92.41
   0.03154              -38.35           21.7          60.16          51.26         -6.503         -11.32          107.4          36.27          20.76          29.59          92.39
    0.0332              -38.36           21.7          60.16          51.24         -6.495         -11.31          107.2          36.26           20.7          29.59          92.37
   0.03486              -38.36           21.7          60.15          51.23         -6.486          -11.3          107.0          36.24          20.64          29.59          92.35
   0.03652              -38.36           21.7          60.15          51.22         -6.476         -11.29          106.8          36.22          20.57          29.59          92.32
   0.03818              -38.36           21.7          60.15           51.2         -6.465         -11.28          106.6           36.2           20.5          29.59          92.29
   0.03984              -38.36           21.7          60.15          51.18         -6.453         -11.26          106.4          36.18          20.41          29.59          92.26
    0.0415              -38.36           21.7          60.15          51.17         -6.439         -11.25          106.1          36.16          20.32          29.58          92.23
   0.04316              -38.36           21.7          60.14          51.14         -6.423         -11.23          105.8          36.13          20.22          29.58          92.19
